<?xml version="1.0" encoding="UTF-8" standalone="yes"?>
<!DOCTYPE svg PUBLIC "-//W3C//DTD SVG 1.1//EN" "http://www.w3.org/Graphics/SVG/1.1/DTD/svg11.dtd">

<svg width="283" height="302" viewBox="0 0 283 302" xmlns="http://www.w3.org/2000/svg" xmlns:xlink="http://www.w3.org/1999/xlink" version="1.1" baseProfile="full">
    <g transform="scale(1,-1) translate(0,-302)">
        <path d="M 1.000000 1.000000 L 284.000000 1.000000 L 284.000000 303.000000 L 1.000000 303.000000 Z" transform="scale(1.000000,1.000000) translate(-1.000000,-1.000000)" fill="#fffefe" opacity="1.000000"></path>
        <path d="M 9.847885 12.840000 L 1.747885 12.840000 Q 1.867885 9.720000 3.157885 7.650000 Q 4.447885 5.580000 6.457885 4.320000 Q 8.467885 3.060000 11.047885 2.520000 Q 13.627885 1.980000 16.327885 1.980000 Q 18.967885 1.980000 21.517885 2.490000 Q 24.067885 3.000000 26.047885 4.260000 Q 28.027885 5.520000 29.257885 7.590000 Q 30.487885 9.660000 30.487885 12.720000 Q 30.487885 14.880000 29.647885 16.350000 Q 28.807885 17.820000 27.427885 18.810000 Q 26.047885 19.800000 24.277885 20.400000 Q 22.507885 21.000000 20.647885 21.420000 Q 18.847885 21.840000 17.107885 22.200000 Q 15.367885 22.560000 14.017885 23.010000 Q 12.667885 23.460000 11.827885 24.180000 Q 10.987885 24.900000 10.987885 26.040000 Q 10.987885 27.000000 11.467885 27.570000 Q 11.947885 28.140000 12.637885 28.440000 Q 13.327885 28.740000 14.167885 28.830000 Q 15.007885 28.920000 15.727885 28.920000 Q 18.007885 28.920000 19.687885 28.050000 Q 21.367885 27.180000 21.547885 24.720000 L 29.647885 24.720000 Q 29.407885 27.600000 28.177885 29.490000 Q 26.947885 31.380000 25.087885 32.520000 Q 23.227885 33.660000 20.857885 34.140000 Q 18.487885 34.620000 15.967885 34.620000 Q 13.447885 34.620000 11.047885 34.170000 Q 8.647885 33.720000 6.727885 32.610000 Q 4.807885 31.500000 3.637885 29.580000 Q 2.467885 27.660000 2.467885 24.660000 Q 2.467885 22.620000 3.307885 21.210000 Q 4.147885 19.800000 5.527885 18.870000 Q 6.907885 17.940000 8.677885 17.370000 Q 10.447885 16.800000 12.307885 16.380000 Q 16.867885 15.420000 19.417885 14.460000 Q 21.967885 13.500000 21.967885 11.580000 Q 21.967885 10.440000 21.427885 9.690000 Q 20.887885 8.940000 20.077885 8.490000 Q 19.267885 8.040000 18.277885 7.830000 Q 17.287885 7.620000 16.387885 7.620000 Q 15.127885 7.620000 13.957885 7.920000 Q 12.787885 8.220000 11.887885 8.850000 Q 10.987885 9.480000 10.417885 10.470000 Q 9.847885 11.460000 9.847885 12.840000 Z M 46.267885 33.780000 L 46.267885 43.080000 L 37.747885 43.080000 L 37.747885 33.780000 L 32.587885 33.780000 L 32.587885 28.080000 L 37.747885 28.080000 L 37.747885 9.780000 Q 37.747885 7.440000 38.527885 6.000000 Q 39.307885 4.560000 40.657885 3.780000 Q 42.007885 3.000000 43.777885 2.730000 Q 45.547885 2.460000 47.527885 2.460000 Q 48.787885 2.460000 50.107885 2.520000 Q 51.427885 2.580000 52.507885 2.760000 L 52.507885 9.360000 Q 51.907885 9.240000 51.247885 9.180000 Q 50.587885 9.120000 49.867885 9.120000 Q 47.707885 9.120000 46.987885 9.840000 Q 46.267885 10.560000 46.267885 12.720000 L 46.267885 28.080000 L 52.507885 28.080000 L 52.507885 33.780000 Z M 64.147885 18.240000 Q 64.147885 20.100000 64.507885 21.900000 Q 64.867885 23.700000 65.737885 25.080000 Q 66.607885 26.460000 68.047885 27.330000 Q 69.487885 28.200000 71.647885 28.200000 Q 73.807885 28.200000 75.277885 27.330000 Q 76.747885 26.460000 77.617885 25.080000 Q 78.487885 23.700000 78.847885 21.900000 Q 79.207885 20.100000 79.207885 18.240000 Q 79.207885 16.380000 78.847885 14.610000 Q 78.487885 12.840000 77.617885 11.430000 Q 76.747885 10.020000 75.277885 9.180000 Q 73.807885 8.340000 71.647885 8.340000 Q 69.487885 8.340000 68.047885 9.180000 Q 66.607885 10.020000 65.737885 11.430000 Q 64.867885 12.840000 64.507885 14.610000 Q 64.147885 16.380000 64.147885 18.240000 Z M 55.627885 18.240000 Q 55.627885 14.520000 56.767885 11.520000 Q 57.907885 8.520000 60.007885 6.390000 Q 62.107885 4.260000 65.047885 3.120000 Q 67.987885 1.980000 71.647885 1.980000 Q 75.307885 1.980000 78.277885 3.120000 Q 81.247885 4.260000 83.347885 6.390000 Q 85.447885 8.520000 86.587885 11.520000 Q 87.727885 14.520000 87.727885 18.240000 Q 87.727885 21.960000 86.587885 24.990000 Q 85.447885 28.020000 83.347885 30.150000 Q 81.247885 32.280000 78.277885 33.450000 Q 75.307885 34.620000 71.647885 34.620000 Q 67.987885 34.620000 65.047885 33.450000 Q 62.107885 32.280000 60.007885 30.150000 Q 57.907885 28.020000 56.767885 24.990000 Q 55.627885 21.960000 55.627885 18.240000 Z M 114.367885 22.860000 L 122.707885 22.860000 Q 122.527885 25.860000 121.267885 28.050000 Q 120.007885 30.240000 117.997885 31.710000 Q 115.987885 33.180000 113.437885 33.900000 Q 110.887885 34.620000 108.127885 34.620000 Q 104.347885 34.620000 101.407885 33.360000 Q 98.467885 32.100000 96.427885 29.850000 Q 94.387885 27.600000 93.337885 24.510000 Q 92.287885 21.420000 92.287885 17.820000 Q 92.287885 14.340000 93.427885 11.430000 Q 94.567885 8.520000 96.607885 6.420000 Q 98.647885 4.320000 101.557885 3.150000 Q 104.467885 1.980000 107.947885 1.980000 Q 114.127885 1.980000 118.087885 5.220000 Q 122.047885 8.460000 122.887885 14.640000 L 114.667885 14.640000 Q 114.247885 11.760000 112.597885 10.050000 Q 110.947885 8.340000 107.887885 8.340000 Q 105.907885 8.340000 104.527885 9.240000 Q 103.147885 10.140000 102.337885 11.550000 Q 101.527885 12.960000 101.167885 14.700000 Q 100.807885 16.440000 100.807885 18.120000 Q 100.807885 19.860000 101.167885 21.630000 Q 101.527885 23.400000 102.397885 24.870000 Q 103.267885 26.340000 104.647885 27.270000 Q 106.027885 28.200000 108.067885 28.200000 Q 113.527885 28.200000 114.367885 22.860000 Z M 128.467885 45.600000 L 128.467885 2.760000 L 136.987885 2.760000 L 136.987885 13.440000 L 140.287885 16.620000 L 148.807885 2.760000 L 159.127885 2.760000 L 146.107885 22.380000 L 157.807885 33.780000 L 147.727885 33.780000 L 136.987885 22.620000 L 136.987885 45.600000 Z M 160.207885 9.180000 L 160.207885 2.760000 L 188.707885 2.760000 L 188.707885 9.180000 L 171.427885 9.180000 L 187.567885 27.360000 L 187.567885 33.780000 L 161.407885 33.780000 L 161.407885 27.360000 L 176.347885 27.360000 Z" transform="scale(1.000000,1.000000) translate(46.000000,46.000000)" fill="#000000" opacity="1.000000"></path>
        <path d="M 169.068000 1.762500 L 170.569700 2.228600 L 171.928600 2.966200 L 173.112600 3.943100 L 174.089400 5.127100 L 174.827000 6.486000 L 175.293200 7.987700 L 175.455700 9.599900 L 175.455700 135.650000 L 175.293200 137.262200 L 174.827000 138.763900 L 174.089400 140.122800 L 173.112600 141.306800 L 171.928600 142.283700 L 170.569700 143.021300 L 169.068000 143.487400 L 167.455700 143.650000 L 9.000000 143.650000 L 7.387700 143.487400 L 5.886000 143.021300 L 4.527100 142.283700 L 3.343100 141.306800 L 2.366200 140.122800 L 1.628600 138.763900 L 1.162500 137.262200 L 1.000000 135.650000 L 1.000000 9.599900 L 1.162500 7.987700 L 1.628600 6.486000 L 2.366200 5.127100 L 3.343100 3.943100 L 4.527100 2.966200 L 5.886000 2.228600 L 7.387700 1.762500 L 9.000000 1.600000 L 167.455700 1.600000 Z M 60.501500 16.608400 L 58.305400 16.676400 L 56.125700 16.812400 L 53.962500 17.016300 L 51.815600 17.288100 L 49.685100 17.628000 L 47.571100 18.035800 L 45.473400 18.511600 L 44.430700 18.775000 L 43.397700 19.056500 L 41.377400 19.677600 L 39.418000 20.376000 L 37.519600 21.151800 L 35.682100 22.004900 L 33.905500 22.935400 L 32.189900 23.943200 L 30.535200 25.028400 L 29.730700 25.600000 L 28.944100 26.191200 L 27.432400 27.433300 L 26.002700 28.755200 L 24.655000 30.156800 L 23.389400 31.638000 L 22.205800 33.199000 L 21.104300 34.839600 L 20.084700 36.559900 L 19.605700 37.450000 L 19.152200 38.360500 L 18.336600 40.244900 L 17.642800 42.213600 L 17.071000 44.266700 L 16.621000 46.404200 L 16.292800 48.626100 L 16.086600 50.932400 L 16.002200 53.323000 L 16.005700 54.550000 L 38.805700 54.550000 L 38.813300 53.881400 L 38.874300 52.583000 L 38.996100 51.336100 L 39.179000 50.140800 L 39.422700 48.997000 L 39.727400 47.904800 L 40.093000 46.864200 L 40.519600 45.875100 L 40.755700 45.400000 L 41.004400 44.936800 L 41.531800 44.043800 L 42.099000 43.195400 L 42.706000 42.391500 L 43.352900 41.632100 L 44.039600 40.917200 L 44.766200 40.246900 L 45.532600 39.621100 L 45.930700 39.325000 L 46.338200 39.039000 L 47.179600 38.495300 L 48.056200 37.989000 L 48.967900 37.520300 L 49.914800 37.089000 L 50.896800 36.695300 L 51.914000 36.339000 L 52.966400 36.020300 L 53.505700 35.875000 L 54.597900 35.611300 L 56.810400 35.189400 L 59.060400 34.908200 L 61.347900 34.767500 L 62.505700 34.750000 L 63.300300 34.758200 L 64.931500 34.823800 L 66.619000 34.955000 L 68.362800 35.151900 L 69.255700 35.275000 L 70.148700 35.421400 L 71.892400 35.805800 L 73.579900 36.312100 L 75.211200 36.940200 L 76.005700 37.300000 L 76.776800 37.692500 L 78.220600 38.583200 L 79.533100 39.614400 L 80.714300 40.786300 L 81.255700 41.425000 L 81.510000 41.758600 L 81.969400 42.459400 L 82.363100 43.204700 L 82.691300 43.994600 L 82.953800 44.829000 L 83.150600 45.707900 L 83.281900 46.631300 L 83.347500 47.599300 L 83.355700 48.100000 L 83.344900 48.637300 L 83.258200 49.673200 L 83.084700 50.657600 L 82.824600 51.590400 L 82.477700 52.471600 L 82.044100 53.301300 L 81.523800 54.079400 L 80.916800 54.806000 L 80.580700 55.150000 L 80.227100 55.483900 L 79.479400 56.130800 L 78.677900 56.749600 L 77.822400 57.340200 L 76.913000 57.902700 L 75.949800 58.437100 L 74.932600 58.943300 L 73.861500 59.421400 L 73.305700 59.650000 L 72.162000 60.092900 L 69.762000 60.936700 L 67.212000 61.724200 L 64.512000 62.455400 L 63.105700 62.800000 L 60.246300 63.493700 L 54.471300 64.993700 L 51.555700 65.800000 L 50.060400 66.185500 L 47.097900 67.019900 L 44.172900 67.938600 L 41.285400 68.941700 L 39.855700 69.475000 L 39.147900 69.751800 L 37.760400 70.335400 L 36.410400 70.958800 L 35.097900 71.622100 L 33.822900 72.325200 L 32.585400 73.068200 L 31.385400 73.851000 L 30.222900 74.673700 L 29.655700 75.100000 L 29.100000 75.537900 L 28.028900 76.454300 L 27.011700 77.424700 L 26.048400 78.448900 L 25.139000 79.527000 L 24.283600 80.659000 L 23.482000 81.845000 L 22.734300 83.084800 L 22.380700 83.725000 L 22.044700 84.380300 L 21.437700 85.742000 L 20.917300 87.171700 L 20.483700 88.669400 L 20.136900 90.235000 L 19.876700 91.868600 L 19.703300 93.570200 L 19.616600 95.339700 L 19.605700 96.250000 L 19.619500 97.272700 L 19.729600 99.267200 L 19.950000 101.193800 L 20.280400 103.052400 L 20.721100 104.843000 L 21.271800 106.565700 L 21.932800 108.220400 L 22.703900 109.807100 L 23.130700 110.575000 L 23.579800 111.326400 L 24.529100 112.781900 L 25.546200 114.174100 L 26.631400 115.503000 L 27.784500 116.768600 L 29.005600 117.970900 L 30.294700 119.110000 L 31.651700 120.185800 L 32.355700 120.700000 L 33.074100 121.198000 L 34.546000 122.144900 L 36.064700 123.026100 L 37.630300 123.841700 L 39.242800 124.591700 L 40.902200 125.276100 L 42.608500 125.894900 L 44.361600 126.448000 L 45.255700 126.700000 L 46.155700 126.936100 L 47.955700 127.362600 L 49.755700 127.728300 L 51.555700 128.033000 L 53.355700 128.276700 L 55.155700 128.459500 L 56.955700 128.581400 L 58.755700 128.642300 L 59.655700 128.650000 L 60.703100 128.642600 L 62.782000 128.584000 L 64.839800 128.466800 L 66.876500 128.291100 L 68.892100 128.056700 L 70.886700 127.763700 L 72.860100 127.412200 L 74.812500 127.002000 L 75.780700 126.775000 L 76.739600 126.531500 L 78.616900 125.990100 L 80.440400 125.376000 L 82.209900 124.689300 L 83.925500 123.929900 L 85.587300 123.097900 L 87.195100 122.193200 L 88.749000 121.215900 L 89.505700 120.700000 L 90.246100 120.165900 L 91.668700 119.043200 L 93.014000 117.847900 L 94.282000 116.579900 L 95.472600 115.239300 L 96.585900 113.826000 L 97.621800 112.340100 L 98.580400 110.781500 L 99.030700 109.975000 L 99.457600 109.148500 L 100.228700 107.430500 L 100.889600 105.625800 L 101.440400 103.734400 L 101.881000 101.756300 L 102.211500 99.691500 L 102.431800 97.539900 L 102.541900 95.301600 L 102.555700 94.149900 L 79.755700 94.149900 L 79.712700 94.743500 L 79.593100 95.891900 L 79.429100 96.988800 L 79.220500 98.034100 L 78.967300 99.027900 L 78.669700 99.970100 L 78.327500 100.860700 L 77.940800 101.699800 L 77.730700 102.100000 L 77.281900 102.866400 L 76.278800 104.272600 L 75.135000 105.510100 L 73.850600 106.578900 L 73.155700 107.050000 L 72.430300 107.483500 L 70.902200 108.252300 L 69.271000 108.889800 L 67.536600 109.396000 L 66.630700 109.600000 L 65.701400 109.775700 L 63.779500 110.057000 L 61.773300 110.244500 L 59.682700 110.338200 L 58.605700 110.350000 L 57.893200 110.340600 L 56.468200 110.265600 L 55.043200 110.115600 L 53.618200 109.890600 L 52.905700 109.750000 L 52.201400 109.585900 L 50.842000 109.173400 L 49.548300 108.648400 L 48.320200 108.010900 L 47.730700 107.650000 L 47.162400 107.263200 L 46.103000 106.419500 L 45.146700 105.482000 L 44.293600 104.450700 L 43.905700 103.900000 L 43.554200 103.318700 L 42.991700 102.043700 L 42.616700 100.618700 L 42.429200 99.043700 L 42.405700 98.200000 L 42.424500 97.431200 L 42.574500 96.006200 L 42.874500 94.731200 L 43.324500 93.606200 L 43.605700 93.100000 L 43.942000 92.617100 L 44.832700 91.679600 L 46.013900 90.779600 L 47.485800 89.917100 L 48.330700 89.500000 L 49.254200 89.087500 L 51.354200 88.262500 L 53.791700 87.437500 L 56.566700 86.612500 L 58.080700 86.200000 L 65.262000 84.325000 L 74.355700 82.000000 L 75.142000 81.834700 L 76.932700 81.412800 L 80.163500 80.551500 L 82.680700 79.825000 L 83.346100 79.620800 L 84.675000 79.168400 L 86.001500 78.657500 L 87.325700 78.087900 L 88.647600 77.459800 L 89.967100 76.773100 L 91.284300 76.027800 L 92.599200 75.223900 L 93.255700 74.800000 L 93.906400 74.359600 L 95.174400 73.424500 L 96.397800 72.416600 L 97.576700 71.336200 L 98.711100 70.183100 L 99.800900 68.957300 L 100.846200 67.658800 L 101.847000 66.287700 L 102.330700 65.575000 L 102.793900 64.840500 L 103.630600 63.295900 L 104.347800 61.650600 L 104.945500 59.904500 L 105.423600 58.057700 L 105.782200 56.110000 L 106.021200 54.061600 L 106.140800 51.912400 L 106.155700 50.800000 L 106.144600 49.885300 L 106.055500 48.080600 L 105.877400 46.308700 L 105.610200 44.569700 L 105.254000 42.863400 L 104.808600 41.190000 L 104.274300 39.549400 L 103.650800 37.941600 L 103.305700 37.150000 L 102.938600 36.369200 L 102.139400 34.848100 L 101.253500 33.380900 L 100.280800 31.967600 L 99.221400 30.608300 L 98.075300 29.302800 L 96.842500 28.051200 L 95.523000 26.853600 L 94.830700 26.275000 L 94.117000 25.711000 L 92.626400 24.630500 L 91.051400 23.613300 L 89.392000 22.659400 L 87.648300 21.768800 L 85.820200 20.941500 L 83.907700 20.177400 L 81.910800 19.476600 L 80.880700 19.150000 L 79.829800 18.841200 L 77.666600 18.283300 L 75.421200 17.805200 L 73.093900 17.406800 L 70.684500 17.088000 L 68.193100 16.849000 L 65.619700 16.689600 L 62.964200 16.609900 L 61.605700 16.600000 Z M 146.776400 18.260500 L 144.367000 18.344900 L 142.023300 18.513600 L 139.745200 18.766700 L 138.630700 18.925000 L 137.540900 19.113600 L 135.459600 19.610500 L 133.509600 20.266700 L 131.690900 21.082400 L 130.830700 21.550000 L 130.414400 21.800100 L 129.615200 22.339200 L 128.860500 22.929800 L 128.150300 23.572000 L 127.484700 24.265800 L 126.863600 25.011100 L 126.287100 25.808000 L 125.755000 26.656400 L 125.505700 27.100000 L 125.269600 27.558700 L 124.843000 28.529100 L 124.477400 29.569700 L 124.172700 30.680600 L 123.929000 31.861900 L 123.746100 33.113400 L 123.624300 34.435300 L 123.563300 35.827500 L 123.555700 36.550000 L 123.555700 82.300000 L 110.655700 82.300000 L 110.655700 96.550000 L 123.555700 96.550000 L 123.555700 119.800000 L 144.855700 119.800000 L 144.855700 96.550000 L 160.455700 96.550000 L 160.455700 82.300000 L 144.855700 82.300000 L 144.855700 43.900000 L 144.862800 43.239000 L 144.919000 42.001500 L 145.031500 40.876500 L 145.200300 39.864000 L 145.425300 38.964000 L 145.706500 38.176500 L 146.044000 37.501500 L 146.437800 36.939000 L 146.655700 36.700000 L 146.894800 36.482000 L 147.457300 36.088200 L 148.132300 35.750700 L 148.919800 35.469500 L 149.819800 35.244500 L 150.832300 35.075700 L 151.957300 34.963200 L 153.194800 34.907000 L 153.855700 34.900000 L 154.746300 34.909300 L 156.471300 34.984300 L 157.305700 35.050000 L 158.121300 35.134300 L 159.696300 35.359300 L 160.455700 35.500000 L 160.455700 19.000000 L 159.771300 18.892100 L 158.346300 18.704600 L 156.846300 18.554600 L 155.271300 18.442100 L 154.455700 18.400000 L 152.815100 18.334300 L 149.590100 18.259300 L 148.005700 18.250000 Z" transform="scale(1.000000,1.000000) translate(53.000000,110.000000)" fill="#000000" opacity="1.000000"></path>
    </g>
</svg>